<svg xmlns="http://www.w3.org/2000/svg" style="display:none">
    <symbol id="tel-icon" viewBox="0 0 64 64">
        <g fill="none" fill-rule="evenodd">
            <path fill="#76ABC4" d="M64 32c0 17.673-14.327 32-32 32S0 49.673 0 32 14.327 0 32 0s32 14.327 32 32z"/>
            <path fill="#638DA0" d="M43.17 50a1.04 1.04 0 0 1-.336-.052c-.228-.075-.526-.155-.889-.256-4.704-1.302-19.016-5.263-25.903-26.629a1.081 1.081 0 0 1-.021-.589c.035-.14.903-3.5 6.677-4.458a1.064 1.064 0 0 1 .635.085c.211.096 5.212 2.448 5.629 7.242.029.306-.076.611-.283.836-1.639 1.776-3.064 3.96-2.988 4.582.131 1.106 3.603 6.939 9.82 9.979.927-.147 3.076-1.563 4.632-2.892a1.08 1.08 0 0 1 .7-.263c.088 0 .177.011.264.034 4.932 1.196 6.71 4.58 6.784 4.724.105.205.142.441.105.668-.831 5.224-4.231 6.825-4.375 6.891a1.087 1.087 0 0 1-.451.098"/>
            <path fill="#FFFFFE" d="M28.962 23.343c-.417-4.794-5.418-7.146-5.629-7.242a1.063 1.063 0 0 0-.635-.085c-5.774.958-6.642 4.318-6.677 4.458-.048.196-.04.399.021.589 6.887 21.366 21.199 25.327 25.903 26.629.363.101.661.181.889.256a1.087 1.087 0 0 0 .787-.046c.144-.066 3.544-1.667 4.375-6.891.037-.227 0-.463-.105-.668-.074-.144-1.852-3.528-6.784-4.724a1.066 1.066 0 0 0-.964.229c-1.556 1.329-3.705 2.745-4.632 2.891-6.217-3.039-9.689-8.872-9.82-9.978-.076-.622 1.349-2.806 2.988-4.582.207-.225.312-.53.283-.836"/>
        </g>
    </symbol>
    <symbol id="viber-icon" viewBox="0 0 512 512" fill="display:none">
        <circle cx="256" cy="256" r="256" style="fill:#6f3faa"/>
        <path d="M367.061 140.443c-62.312-15.05-124.735-32.654-188.637-10.288-41.374 15.515-41.374 60.337-39.65 98.263 0 10.343-12.067 24.135-6.896 36.202 10.343 34.478 18.963 68.956 55.165 86.195 5.172 3.448 0 10.343 3.448 15.515-1.724 0-5.172 1.724-5.172 3.448 0 8.263 3.708 20.902 1.245 29.05l110.006 109.96c113.09-18.01 201.478-110.068 213.914-224.921L367.061 140.443z" style="fill:#512d84"/>
        <path d="m391.427 179.924-.084-.338c-6.84-27.653-37.678-57.325-65.998-63.498l-.319-.066c-45.806-8.738-92.251-8.738-138.047 0l-.329.066c-28.31 6.173-59.149 35.847-65.998 63.498l-.076.338c-8.456 38.617-8.456 77.781 0 116.398l.076.338c6.558 26.472 35.099 54.782 62.362 62.567v30.868c0 11.173 13.615 16.66 21.357 8.597l31.275-32.509c6.784.379 13.571.591 20.356.591 23.057 0 46.125-2.181 69.023-6.549l.319-.066c28.32-6.173 59.158-35.847 65.998-63.498l.084-.338c8.456-38.618 8.456-77.78.001-116.399zm-24.751 110.799c-4.567 18.041-27.981 40.469-46.585 44.613-24.355 4.632-48.904 6.611-73.428 5.932a1.732 1.732 0 0 0-1.296.526c-3.481 3.572-22.835 23.442-22.835 23.442l-24.288 24.928c-1.776 1.852-4.896.591-4.896-1.964v-51.136c0-.845-.603-1.562-1.433-1.726l-.014-.003c-18.604-4.144-42.01-26.572-46.585-44.613-7.611-34.906-7.611-70.292 0-105.198 4.575-18.041 27.981-40.469 46.585-44.613 42.536-8.09 85.664-8.09 128.191 0 18.613 4.144 42.018 26.572 46.585 44.613 7.619 34.907 7.619 70.293-.001 105.199z" style="fill:#fff"/>
        <path d="M296.47 314.327c-2.86-.869-5.585-1.452-8.118-2.501-26.231-10.883-50.371-24.923-69.492-46.444-10.874-12.238-19.385-26.055-26.579-40.677-3.412-6.934-6.287-14.139-9.218-21.299-2.672-6.528 1.264-13.272 5.408-18.192 3.889-4.617 8.894-8.149 14.314-10.754 4.23-2.032 8.402-.86 11.492 2.725 6.678 7.752 12.814 15.9 17.78 24.886 3.055 5.527 2.217 12.283-3.32 16.044-1.346.914-2.572 1.988-3.825 3.02-1.1.905-2.134 1.819-2.888 3.044-1.377 2.241-1.443 4.886-.557 7.323 6.827 18.761 18.334 33.351 37.219 41.21 3.022 1.257 6.056 2.72 9.538 2.315 5.83-.681 7.718-7.077 11.804-10.418 3.993-3.265 9.097-3.308 13.398-.586 4.303 2.724 8.473 5.646 12.619 8.601 4.07 2.9 8.121 5.735 11.874 9.042 3.61 3.179 4.853 7.349 2.82 11.662-3.72 7.901-9.135 14.472-16.944 18.668-2.205 1.182-4.839 1.565-7.325 2.331-2.86-.869 2.486-.766 0 0zm-40.399-148.901c34.309.962 62.49 23.731 68.529 57.651 1.029 5.78 1.395 11.688 1.853 17.555.193 2.467-1.205 4.811-3.867 4.844-2.75.033-3.987-2.269-4.167-4.734-.353-4.882-.598-9.787-1.271-14.627-3.551-25.559-23.931-46.704-49.371-51.241-3.829-.683-7.745-.862-11.624-1.269-2.451-.257-5.661-.405-6.204-3.453-.455-2.555 1.701-4.589 4.134-4.72.659-.039 1.324-.008 1.988-.006 34.311.962-.664-.002 0 0z" style="fill:#fff"/>
        <path d="M308.212 233.019c-.057.429-.086 1.436-.338 2.384-.91 3.444-6.134 3.875-7.335.4-.357-1.031-.41-2.205-.412-3.315-.012-7.266-1.591-14.526-5.256-20.849-3.767-6.499-9.523-11.96-16.272-15.267-4.082-1.998-8.495-3.241-12.969-3.98-1.955-.324-3.931-.519-5.896-.793-2.381-.331-3.653-1.848-3.539-4.194.105-2.198 1.712-3.781 4.108-3.644 7.873.446 15.479 2.15 22.48 5.856 14.234 7.539 22.366 19.437 24.74 35.326.107.721.279 1.433.334 2.155.134 1.782.219 3.567.355 5.921-.057.427-.136-2.354 0 0z" style="fill:#fff"/>
        <path d="M286.872 232.188c-2.87.052-4.406-1.538-4.703-4.168-.205-1.834-.369-3.694-.807-5.48-.862-3.517-2.731-6.775-5.689-8.93-1.396-1.017-2.979-1.758-4.636-2.238-2.105-.609-4.293-.441-6.392-.955-2.281-.559-3.543-2.407-3.184-4.546.326-1.948 2.22-3.468 4.349-3.313 13.302.96 22.809 7.837 24.166 23.497.097 1.105.209 2.272-.036 3.331-.422 1.807-1.762 2.714-3.068 2.802-2.871.051 1.306-.088 0 0z" style="fill:#fff"/>
        <path d="m391.427 179.924-.084-.338c-3.834-15.501-15.212-31.635-29.458-43.911l-19.259 17.068c11.452 9.125 21.264 21.766 24.052 32.78 7.62 34.907 7.62 70.292 0 105.2-4.567 18.041-27.982 40.469-46.585 44.613-24.355 4.632-48.904 6.611-73.428 5.932a1.732 1.732 0 0 0-1.296.526c-3.481 3.572-22.835 23.442-22.835 23.442l-24.288 24.928c-1.776 1.852-4.896.593-4.896-1.964v-51.136c0-.845-.603-1.562-1.433-1.726l-.014-.002c-10.573-2.355-22.692-10.618-32.028-20.621l-19.03 16.863c11.885 12.929 27.214 23.381 42.168 27.651v30.868c0 11.173 13.615 16.66 21.357 8.597l31.275-32.509c6.784.379 13.569.591 20.356.591 23.057 0 46.125-2.181 69.023-6.549l.319-.065c28.32-6.173 59.158-35.845 65.998-63.498l.084-.338c8.457-38.621 8.457-77.783.002-116.402z" style="fill:#d1d1d1"/>
        <path d="M296.47 314.327c2.486-.766-2.86-.869 0 0z" style="fill:#fff"/>
        <path d="M317.921 281.664c-3.753-3.305-7.806-6.142-11.874-9.042-4.146-2.955-8.316-5.877-12.619-8.601-4.301-2.722-9.404-2.679-13.398.586-4.086 3.341-5.973 9.737-11.804 10.418-3.481.405-6.516-1.059-9.538-2.315-11.619-4.834-20.435-12.226-27.098-21.559l-14.16 12.55c.481.557.94 1.129 1.429 1.679 19.122 21.521 43.263 35.561 69.492 46.444 2.531 1.05 5.258 1.634 8.118 2.501-2.86-.869 2.488-.765 0 0 2.488-.765 5.12-1.15 7.327-2.332 7.811-4.196 13.224-10.768 16.944-18.668 2.034-4.312.791-8.482-2.819-11.661z" style="fill:#d1d1d1"/>
        <path d="M256.159 165.431c-.029 0-.057-.003-.086-.003-.028-.002.008 0 .086.003zm-.087-.005c.029 0 .057.003.086.003 1.904.068 32.872.921-.086-.003z" style="fill:#fff"/>
        <path d="m305.285 185.837-6.037 5.351c9.487 9.23 16.029 21.463 17.899 34.925.672 4.842.919 9.745 1.272 14.627.179 2.467 1.415 4.768 4.167 4.736 2.663-.033 4.06-2.376 3.867-4.844-.459-5.866-.824-11.776-1.853-17.555-2.643-14.848-9.53-27.559-19.315-37.24zm2.236 39.102c-1.729-11.578-6.532-21.026-14.51-28.224l-6.02 5.335c3.113 2.763 5.806 6.008 7.88 9.587 3.665 6.323 5.244 13.583 5.256 20.849.002 1.11.055 2.284.412 3.317 1.203 3.477 6.425 3.046 7.335-.4.252-.95.281-1.957.338-2.384-.057.429-.138-2.353 0 0-.138-2.353-.222-4.139-.357-5.923-.053-.725-.226-1.437-.334-2.157z" style="fill:#d1d1d1"/>
        <path d="M308.212 233.019c-.136-2.354-.057.427 0 0zm-21.34-.831c.045-.003.088-.026.131-.031-.121 0-.307.003-.498.01.124.003.237.022.367.021z" style="fill:#fff"/>
        <path d="M286.872 232.188c-.129.002-.243-.017-.367-.021-.621.017-1.262.05.367.021zm.131-.031c-.045.005-.088.028-.131.031.336-.023.307-.031.131-.031z" style="fill:#fff"/>
        <path d="m280.814 207.525-6.128 5.432c.338.205.669.419.99.652 2.958 2.155 4.827 5.413 5.689 8.93.438 1.786.6 3.644.807 5.48.283 2.513 1.71 4.058 4.336 4.148.191-.005.379-.009.498-.01 1.264-.14 2.531-1.026 2.936-2.774.245-1.057.133-2.226.036-3.331-.762-8.755-4.072-14.762-9.164-18.527z" style="fill:#d1d1d1"/>
    </symbol>
    <symbol id="clock" viewBox="0 0 64 64">
        <path d="M31.999 15.947c-10.477 0-19 8.523-19 19 0 4.879 1.864 9.32 4.897 12.688l-4.604 4.605 1.414 1.414 4.604-4.605c3.369 3.034 7.81 4.898 12.688 4.898s9.319-1.864 12.688-4.898l4.604 4.605 1.414-1.414-4.604-4.605c3.033-3.368 4.897-7.809 4.897-12.688.002-10.476-8.521-19-18.998-19zm0 36c-9.374 0-17-7.626-17-17s7.626-17 17-17 17 7.626 17 17-7.626 17-17 17z" style="fill:#2E2F42"/>
        <path d="M53.893 13.055c-1.936-1.936-4.51-3.002-7.248-3.002s-5.313 1.066-7.248 3.002l-.707.707 14.495 14.495.707-.707a10.18 10.18 0 0 0 3.003-7.248c0-2.738-1.066-5.312-3.002-7.247zm-.75 12.332L41.56 13.804a8.191 8.191 0 0 1 5.085-1.751c2.204 0 4.275.858 5.834 2.416s2.416 3.629 2.416 5.833a8.194 8.194 0 0 1-1.752 5.085zM24.602 13.055a10.182 10.182 0 0 0-7.247-3.002 10.178 10.178 0 0 0-7.248 3.003c-1.936 1.936-3.002 4.509-3.002 7.247s1.066 5.312 3.002 7.247l.707.707 14.495-14.495-.707-.707zM10.855 25.387a8.182 8.182 0 0 1-1.751-5.084 8.19 8.19 0 0 1 2.416-5.833 8.193 8.193 0 0 1 5.834-2.417 8.19 8.19 0 0 1 5.084 1.751L10.855 25.387zm22.144-4.44h-2v14.414l6.293 6.293 1.414-1.414-5.707-5.707z" style="fill:#2E2F42"/>
    </symbol>
    <symbol id="icon-scroll-up-arrow" viewBox="0 0 32 32">
        <path d="M4.5 19.6 15.7 8.367c.133-.133.278-.228.433-.283s.322-.084.5-.084.345.028.5.084.3.149.433.283L28.799 19.6c.311.311.467.7.467 1.167s-.167.867-.5 1.2c-.333.333-.722.5-1.167.5s-.833-.167-1.167-.5l-9.8-9.8-9.8 9.8c-.311.311-.694.467-1.149.467s-.851-.167-1.184-.5-.5-.722-.5-1.167c0-.444.167-.833.5-1.167z" />
    </symbol>
</svg>
